/* XPM */
static char *ground4[] = {
/* columns rows colors chars-per-pixel */
"16 16 5 1 ",
"  c #281D27",
". c #332D30",
"X c #463F3B",
"o c #514B43",
"O c #5F584C",
/* pixels */
" ........    . .",
".. OOOOo.OO .OO.",
" OOoOoX  OoOOooX",
" OooooX  OoooooX",
" OooXoXX XXooXX ",
" OoXoX  . .OooX.",
" oooX OOOO .OooX",
"..XXX.OooX .OXXX",
" .   .OoooX.  . ",
" .OOO..XXXX.OO. ",
".OoOo...   OoOoX",
".OOooX.OOoOoooXX",
".OooXX.OoXoXXXX ",
"  OooXX   ..  ..",
"  OoXoXOOO.OOOOO",
"   XXXXXX . ooXX"
};
