/* XPM */
static char *ground3[] = {
/* columns rows colors chars-per-pixel */
"16 16 5 1 ",
"  c #281D27",
". c #332D30",
"X c #463F3B",
"o c #514B43",
"O c #5F584C",
/* pixels */
"..     ..       ",
"  OOOOOOOO.OOOOX",
" OooXoXoXX OoooX",
".oXXXXXXX. oXXoX",
" .     ...  . XX",
".OOOO..OOOOOoX X",
" OooX OoooooXX X",
"  oXX XoXXXXX   ",
"    ..   .      ",
".OOOOOOO. OOOOO ",
" OoOoooo.OoOooOo",
" OOooooX OOooooX",
" .OoooXX  oOoooX",
". OooXoX  OooooX",
"  OoXoXX..OoooX.",
".XXXXXX  XoXXX  "
};
