/* XPM */
static char *ground1[] = {
/* columns rows colors chars-per-pixel */
"16 16 5 1 ",
"  c #281D27",
". c #332D30",
"X c #463F3B",
"o c #514B43",
"O c #5F584C",
/* pixels */
".  .    ..   ...",
". OOOOOO   OOOo ",
" OoOoooo OOooooX",
" OOooooX OoOoooX",
" OooXooX .OoooXX",
".OXXoXoX..OooXoX",
".XoXXXoX.OoooXXX",
" XX   XX. XXXXX ",
"   ..    .   ...",
"....OOOX ..OO.O ",
"oooooXXX..Ooo.Oo",
"XXXX..   Ooo  OX",
" .  OOOo.. .  oX",
"OooOoooo OOOO.XX",
"XXXXoooX Ooooo..",
".....XX. oXXXXoO"
};
