/* XPM */
static char *test_42[] = {
"16 16 7 1 ",
"  c #FF0000",
". c #00FF00",
"X c #0000FF",
"o c #FF00FF",
"O c #FFFFFF",
"s c #000000",
"e c #FFFF00",
/* pixels */
"s.X .X .X .X. .o",
"OOOOOOOOOOOOOOOo",
" .X .X .X .X. .o",
"OOOOOOOOOOOOOOOo",
" .X .X .e .X. .o",
"OOOOOOOOOOOOOOOo",
" .X .Xe.X .X. .o",
"OOOOOOOOOOOOOOOo",
" .X .X .Xe.X. .o",
"OOOOOOOOOOOOOOOo",
" .Xe.X .X .X. .o",
"OOOOOOOOOOOOOOOo",
" .X .X .X .X.e.o",
"OOOOOOOOOOOOOOOo",
"e.X .X .X .X. .o",
"OOOOOOOOOOOOOOOe",
};
